<?xml version="1.0" encoding="utf-8"?>
<!-- Generator: Adobe Illustrator 26.0.1, SVG Export Plug-In . SVG Version: 6.00 Build 0)  -->
<svg version="1.1" id="Layer_1" xmlns="http://www.w3.org/2000/svg" xmlns:xlink="http://www.w3.org/1999/xlink" x="0px" y="0px"
	 viewBox="0 0 46.8 46.7" style="enable-background:new 0 0 46.8 46.7;" xml:space="preserve">
<style type="text/css">
	.st0{fill:#FFCA00;}
</style>
<path id="instagram" class="st0" d="M23.4,11.4c-6.6,0-12,5.4-12,12s5.4,12,12,12c6.6,0,12-5.4,12-12C35.4,16.8,30,11.4,23.4,11.4
	C23.4,11.4,23.4,11.4,23.4,11.4z M23.4,31.2c-4.3,0-7.8-3.5-7.8-7.8c0-4.3,3.5-7.8,7.8-7.8s7.8,3.5,7.8,7.8c0,0,0,0,0,0
	C31.2,27.7,27.7,31.2,23.4,31.2L23.4,31.2z M38.7,10.9c0,1.5-1.3,2.8-2.8,2.8s-2.8-1.3-2.8-2.8c0-1.5,1.3-2.8,2.8-2.8l0,0
	C37.4,8.1,38.6,9.3,38.7,10.9C38.7,10.9,38.7,10.9,38.7,10.9L38.7,10.9z M46.6,13.7c-0.2-3.7-1-7.1-3.8-9.8s-6-3.6-9.8-3.8
	c-3.9-0.2-15.4-0.2-19.3,0c-3.7,0.2-7.1,1-9.8,3.8s-3.6,6-3.8,9.8c-0.2,3.9-0.2,15.4,0,19.3c0.2,3.7,1,7.1,3.8,9.8s6,3.6,9.8,3.8
	c3.9,0.2,15.4,0.2,19.3,0c3.7-0.2,7.1-1,9.8-3.8s3.6-6,3.8-9.8C46.8,29.1,46.8,17.6,46.6,13.7L46.6,13.7z M41.6,37.1
	c-0.8,2-2.4,3.6-4.4,4.4c-3.1,1.2-10.4,0.9-13.8,0.9s-10.7,0.3-13.8-0.9c-2-0.8-3.6-2.4-4.4-4.4c-1.2-3.1-0.9-10.4-0.9-13.8
	S4,12.7,5.2,9.6C6,7.6,7.6,6,9.6,5.2C12.7,3.9,20,4.2,23.4,4.2s10.7-0.3,13.8,0.9c2,0.8,3.6,2.4,4.4,4.4c1.2,3.1,0.9,10.4,0.9,13.8
	S42.8,34.1,41.6,37.1z"/>
</svg>
