<svg xmlns="http://www.w3.org/2000/svg" width="46.753" height="46.742" viewBox="0 0 46.753 46.742">
  <path id="instagram" d="M23.307,43.212A11.984,11.984,0,1,0,35.291,55.2,11.965,11.965,0,0,0,23.307,43.212Zm0,19.775A7.791,7.791,0,1,1,31.1,55.2a7.805,7.805,0,0,1-7.791,7.791Zm15.27-20.266a2.8,2.8,0,1,1-2.8-2.8A2.789,2.789,0,0,1,38.576,42.722Zm7.937,2.837c-.177-3.744-1.033-7.061-3.776-9.794s-6.049-3.588-9.794-3.776c-3.859-.219-15.426-.219-19.285,0-3.734.177-7.051,1.033-9.794,3.765S.277,41.8.089,45.548c-.219,3.859-.219,15.426,0,19.285.177,3.744,1.033,7.061,3.776,9.794s6.049,3.588,9.794,3.776c3.859.219,15.426.219,19.285,0,3.744-.177,7.061-1.033,9.794-3.776s3.588-6.049,3.776-9.794C46.733,60.975,46.733,49.418,46.514,45.559ZM41.528,68.974a7.888,7.888,0,0,1-4.443,4.443c-3.077,1.22-10.378.939-13.778.939s-10.712.271-13.778-.939a7.888,7.888,0,0,1-4.443-4.443C3.865,65.9,4.147,58.6,4.147,55.2s-.271-10.712.939-13.778a7.888,7.888,0,0,1,4.443-4.443c3.077-1.22,10.378-.939,13.778-.939s10.712-.271,13.778.939a7.888,7.888,0,0,1,4.443,4.443c1.22,3.077.939,10.378.939,13.778S42.748,65.908,41.528,68.974Z" transform="translate(0.075 -31.825)" fill="#044344"/>
</svg>
