<?xml version="1.0" encoding="utf-8"?>
<!-- Generator: Adobe Illustrator 26.0.1, SVG Export Plug-In . SVG Version: 6.00 Build 0)  -->
<svg version="1.1" id="Layer_1" xmlns="http://www.w3.org/2000/svg" xmlns:xlink="http://www.w3.org/1999/xlink" x="0px" y="0px"
	 viewBox="0 0 46.7 46.7" style="enable-background:new 0 0 46.7 46.7;" xml:space="preserve">
<style type="text/css">
	.st0{fill:#FFCA00;}
</style>
<path id="spotify" class="st0" d="M23.4,0C10.5,0,0,10.5,0,23.4s10.5,23.4,23.4,23.4c12.9,0,23.4-10.5,23.4-23.4
	C46.7,10.5,36.3,0,23.4,0z M32.9,34.4c-0.4,0-0.7-0.1-1-0.3c-5.9-3.5-12.7-3.7-19.5-2.3c-0.4,0.1-0.7,0.2-1.1,0.2
	c-0.8,0-1.5-0.6-1.5-1.4c0,0,0,0,0,0c-0.1-0.8,0.5-1.5,1.3-1.6c7.7-1.7,15.6-1.6,22.3,2.5c0.6,0.3,1,0.9,0.9,1.6
	C34.3,33.7,33.7,34.4,32.9,34.4C32.9,34.4,32.9,34.4,32.9,34.4L32.9,34.4z M35.4,28.2c-0.4,0-0.8-0.2-1.2-0.4
	C27.4,24,19.3,23,11.8,25c-0.4,0.1-0.7,0.2-1.1,0.2c-1,0-1.8-0.8-1.8-1.8c-0.1-0.9,0.6-1.8,1.5-2c3-0.9,6.1-1.3,9.2-1.3
	c5.8-0.1,11.6,1.4,16.7,4.3c0.7,0.4,1.1,1.1,1.1,1.9C37.2,27.4,36.4,28.2,35.4,28.2C35.4,28.2,35.4,28.2,35.4,28.2z M38.3,21
	c-0.4,0-0.9-0.1-1.2-0.4c-6.7-4-18.7-5-26.5-2.8c-0.4,0.1-0.8,0.2-1.2,0.2c-1.2,0-2.2-0.9-2.2-2.1c0,0,0,0,0-0.1c0-1,0.6-2,1.6-2.3
	c3.6-1,7.3-1.5,11.1-1.4c6.9,0,14.1,1.4,19.4,4.5c0.8,0.4,1.3,1.2,1.2,2.1C40.5,20,39.5,21,38.3,21C38.3,21,38.3,21,38.3,21L38.3,21
	z"/>
</svg>
