<svg xmlns="http://www.w3.org/2000/svg" width="46.743" height="46.743" viewBox="0 0 46.743 46.743">
  <path id="spotify" d="M23.371,8A23.371,23.371,0,1,0,46.743,31.371,23.379,23.379,0,0,0,23.371,8Zm9.49,34.388a1.8,1.8,0,0,1-1.008-.339c-5.881-3.543-12.722-3.694-19.479-2.309a6.085,6.085,0,0,1-1.121.245A1.467,1.467,0,0,1,9.763,38.5a1.493,1.493,0,0,1,1.282-1.583c7.718-1.706,15.606-1.555,22.335,2.469a1.594,1.594,0,0,1,.914,1.555,1.424,1.424,0,0,1-1.432,1.451ZM35.4,36.206a2.327,2.327,0,0,1-1.159-.4,30.54,30.54,0,0,0-22.486-2.771,3.881,3.881,0,0,1-1.121.245A1.83,1.83,0,0,1,8.8,31.456a1.854,1.854,0,0,1,1.461-1.951,31.7,31.7,0,0,1,9.217-1.282,32.989,32.989,0,0,1,16.68,4.288,1.965,1.965,0,0,1,1.065,1.857A1.826,1.826,0,0,1,35.4,36.206Zm2.921-7.181a2.167,2.167,0,0,1-1.216-.368c-6.71-4.005-18.707-4.966-26.472-2.8a4.476,4.476,0,0,1-1.216.245,2.175,2.175,0,0,1-2.2-2.224,2.227,2.227,0,0,1,1.64-2.252,39.5,39.5,0,0,1,11.073-1.432c6.879,0,14.089,1.432,19.357,4.5a2.212,2.212,0,0,1,1.216,2.13,2.183,2.183,0,0,1-2.186,2.2Z" transform="translate(0 -8)" fill="#044344"/>
</svg>
