<?xml version="1.0" encoding="utf-8"?>
<!-- Generator: Adobe Illustrator 26.0.1, SVG Export Plug-In . SVG Version: 6.00 Build 0)  -->
<svg version="1.1" id="Layer_1" xmlns="http://www.w3.org/2000/svg" xmlns:xlink="http://www.w3.org/1999/xlink" x="0px" y="0px"
	 viewBox="0 0 47.5 38.5" style="enable-background:new 0 0 47.5 38.5;" xml:space="preserve">
<style type="text/css">
	.st0{fill:#FFCA00;}
</style>
<path id="twitter" class="st0" d="M42.6,9.6c0,0.4,0,0.8,0,1.3c0,12.9-9.8,27.7-27.7,27.7C9.6,38.6,4.5,37,0,34.2
	c0.8,0.1,1.6,0.1,2.3,0.1c4.4,0,8.6-1.5,12.1-4.2c-4.2-0.1-7.8-2.8-9.1-6.7c0.6,0.1,1.2,0.1,1.8,0.2c0.9,0,1.7-0.1,2.6-0.3
	c-4.5-0.9-7.8-4.9-7.8-9.5v-0.1c1.3,0.8,2.9,1.2,4.4,1.2c-4.3-2.9-5.6-8.6-3-13C8.3,7.9,15.5,11.6,23.4,12c-0.2-0.7-0.2-1.5-0.2-2.2
	c0-5.4,4.4-9.7,9.7-9.7c2.7,0,5.2,1.1,7.1,3.1c2.2-0.4,4.3-1.2,6.2-2.4c-0.7,2.2-2.2,4.2-4.3,5.4c1.9-0.2,3.8-0.7,5.6-1.5
	C46.1,6.5,44.5,8.2,42.6,9.6L42.6,9.6z"/>
</svg>
