<svg xmlns="http://www.w3.org/2000/svg" width="47.459" height="38.545" viewBox="0 0 47.459 38.545">
  <path id="twitter" d="M42.58,57.688c.03.422.03.843.03,1.265,0,12.858-9.787,27.674-27.674,27.674A27.487,27.487,0,0,1,0,82.261a20.121,20.121,0,0,0,2.349.12,19.48,19.48,0,0,0,12.076-4.156A9.744,9.744,0,0,1,5.33,71.48a12.267,12.267,0,0,0,1.837.151,10.288,10.288,0,0,0,2.56-.331,9.728,9.728,0,0,1-7.8-9.546v-.12a9.8,9.8,0,0,0,4.4,1.235A9.741,9.741,0,0,1,3.312,49.859,27.648,27.648,0,0,0,23.368,60.037a10.98,10.98,0,0,1-.241-2.228,9.736,9.736,0,0,1,16.833-6.655A19.15,19.15,0,0,0,46.134,48.8a9.7,9.7,0,0,1-4.276,5.36,19.5,19.5,0,0,0,5.6-1.506,20.909,20.909,0,0,1-4.878,5.029Z" transform="translate(0 -48.082)" fill="#044344"/>
</svg>
