<?xml version="1.0" encoding="utf-8"?>
<!-- Generator: Adobe Illustrator 26.0.1, SVG Export Plug-In . SVG Version: 6.00 Build 0)  -->
<svg version="1.1" id="Layer_1" xmlns="http://www.w3.org/2000/svg" xmlns:xlink="http://www.w3.org/1999/xlink" x="0px" y="0px"
	 viewBox="0 0 54.8 38.5" style="enable-background:new 0 0 54.8 38.5;" xml:space="preserve">
<style type="text/css">
	.st0{fill:#FFCA00;}
</style>
<path id="youtube" class="st0" d="M53.7,6c-0.6-2.4-2.5-4.2-4.8-4.9C44.6,0,27.4,0,27.4,0S10.3,0,6,1.2C3.6,1.8,1.8,3.7,1.1,6
	C0,10.3,0,19.3,0,19.3s0,9,1.1,13.3c0.6,2.4,2.5,4.2,4.8,4.8c4.3,1.2,21.4,1.2,21.4,1.2s17.1,0,21.4-1.2c2.4-0.6,4.2-2.4,4.8-4.8
	c1.1-4.3,1.1-13.3,1.1-13.3S54.8,10.3,53.7,6z M21.8,27.5V11.2l14.3,8.2L21.8,27.5z"/>
</svg>
