<svg xmlns="http://www.w3.org/2000/svg" width="54.82" height="38.545" viewBox="0 0 54.82 38.545">
  <path id="youtube" d="M68.608,70.031a6.888,6.888,0,0,0-4.847-4.878C59.486,64,42.343,64,42.343,64S25.2,64,20.925,65.153a6.888,6.888,0,0,0-4.847,4.878c-1.146,4.3-1.146,13.281-1.146,13.281s0,8.978,1.146,13.281a6.786,6.786,0,0,0,4.847,4.8c4.275,1.153,21.418,1.153,21.418,1.153s17.143,0,21.418-1.153a6.786,6.786,0,0,0,4.847-4.8c1.146-4.3,1.146-13.281,1.146-13.281S69.753,74.334,68.608,70.031ZM36.736,91.463v-16.3l14.328,8.151L36.736,91.463Z" transform="translate(-14.933 -64)" fill="#044344"/>
</svg>
